<?xml version="1.0" standalone="no"?>
<!DOCTYPE svg PUBLIC "-//W3C//DTD SVG 20010904//EN"
 "http://www.w3.org/TR/2001/REC-SVG-20010904/DTD/svg10.dtd">
<svg version="1.0" xmlns="http://www.w3.org/2000/svg"
 width="914.000000pt" height="559.000000pt" viewBox="0 0 914.000000 559.000000"
 preserveAspectRatio="xMidYMid meet">

<g transform="translate(0.000000,559.000000) scale(0.100000,-0.100000)"
fill="#000000" stroke="none">
<path d="M1083 3859 c-62 -24 -133 -98 -151 -157 -9 -29 -12 -242 -12 -804 0
-852 -3 -818 68 -891 20 -21 55 -48 77 -60 l40 -22 1049 -3 c1191 -3 1111 -8
1197 78 82 82 79 48 79 900 0 853 3 818 -80 900 -84 85 -12 80 -1184 79 -1007
0 -1032 -1 -1083 -20z m440 -438 c23 -9 340 -381 366 -429 26 -48 16 -66 -164
-281 -96 -116 -183 -215 -194 -220 -57 -31 -131 16 -131 83 0 37 11 53 207
289 40 48 73 90 73 93 0 3 -55 71 -123 152 -150 180 -157 189 -157 225 0 38
15 64 48 81 32 18 43 19 75 7z m1131 -1017 c35 -36 34 -77 -3 -115 l-29 -29
-346 0 -345 0 -27 24 c-21 18 -28 32 -28 61 0 29 7 43 28 61 l27 24 348 0 348
0 27 -26z"/>
<path d="M7063 3470 c-45 -19 -57 -86 -23 -120 15 -15 33 -20 69 -20 42 0 53
4 71 27 23 30 22 76 -4 101 -17 17 -84 25 -113 12z"/>
<path d="M4247 3423 c-4 -7 -179 -544 -202 -620 -6 -22 -4 -23 64 -23 l70 0
28 85 27 86 120 -3 121 -3 24 -82 24 -83 73 0 72 0 -30 93 c-16 50 -63 197
-104 325 l-75 232 -104 0 c-57 0 -106 -3 -108 -7z m148 -223 c19 -63 35 -118
35 -122 0 -5 -36 -8 -81 -8 -72 0 -80 2 -75 18 54 172 79 245 82 237 2 -5 19
-62 39 -125z"/>
<path d="M6716 3413 c-3 -10 -8 -40 -11 -68 -11 -83 -12 -85 -56 -85 l-39 0 0
-55 0 -55 40 0 40 0 0 -112 c0 -167 21 -222 97 -254 33 -14 121 -18 161 -8 19
6 22 13 22 60 l0 54 -48 0 c-75 0 -82 14 -82 148 l0 112 60 0 60 0 0 55 0 55
-60 0 -60 0 0 85 0 85 -59 0 c-48 0 -61 -3 -65 -17z"/>
<path d="M4934 3259 c-17 -5 -39 -18 -49 -29 -24 -27 -35 -25 -35 5 0 24 -3
25 -60 25 l-60 0 0 -240 0 -240 70 0 70 0 0 161 0 160 46 21 c28 12 60 18 80
16 l34 -4 0 68 0 68 -32 -1 c-18 0 -47 -5 -64 -10z"/>
<path d="M5221 3252 c-130 -38 -192 -184 -146 -340 38 -127 181 -178 279 -101
l26 20 0 -26 c0 -46 -25 -91 -59 -105 -29 -11 -160 -11 -211 1 -12 3 -15 -7
-15 -50 0 -54 0 -55 35 -64 19 -5 82 -7 140 -5 92 3 111 6 150 30 28 16 55 43
70 70 25 43 25 44 25 303 l0 260 -55 12 c-78 16 -176 14 -239 -5z m157 -213
c3 -134 -2 -144 -75 -144 -37 0 -49 5 -69 28 -20 23 -24 39 -24 92 0 35 6 76
12 91 16 34 61 54 113 51 l40 -2 3 -116z"/>
<path d="M5758 3260 c-114 -34 -174 -157 -148 -302 15 -84 49 -134 108 -160
53 -24 154 -34 236 -24 l56 7 0 52 0 52 -106 0 c-103 0 -106 1 -130 28 -13 15
-24 37 -24 48 0 18 8 19 145 19 l145 0 0 48 c0 72 -26 147 -64 185 -50 50
-142 70 -218 47z m125 -112 c9 -11 17 -35 17 -54 l0 -34 -75 0 c-73 0 -75 1
-75 25 0 81 83 122 133 63z"/>
<path d="M6325 3258 c-16 -6 -39 -17 -50 -24 -27 -19 -35 -17 -35 6 0 18 -7
20 -60 20 l-60 0 0 -240 0 -240 70 0 70 0 0 164 c0 159 1 165 22 180 27 19 99
21 116 4 8 -8 12 -63 12 -180 l0 -168 76 0 76 0 -4 188 c-3 204 -10 230 -69
274 -31 23 -122 32 -164 16z"/>
<path d="M7487 3256 c-21 -8 -47 -22 -58 -32 -18 -16 -19 -16 -19 9 0 26 -2
27 -60 27 l-60 0 0 -240 0 -240 70 0 70 0 0 164 c0 159 1 165 22 180 33 23
105 21 118 -3 6 -11 10 -89 10 -180 l0 -161 76 0 76 0 -4 183 c-3 158 -6 187
-23 222 -36 72 -130 102 -218 71z"/>
<path d="M7925 3266 c-5 -3 -27 -7 -47 -11 l-38 -6 0 -54 0 -54 33 7 c17 4 63
7 100 7 60 0 71 -3 88 -24 34 -42 25 -58 -33 -65 -110 -14 -128 -18 -160 -40
-92 -61 -85 -188 13 -239 47 -25 138 -19 180 12 l30 23 6 -21 c5 -18 13 -21
65 -21 l60 0 -4 188 c-3 174 -5 190 -26 223 -31 50 -79 71 -176 75 -45 2 -85
2 -91 0z m155 -324 c0 -43 -3 -50 -25 -60 -67 -31 -127 5 -106 61 10 27 26 34
91 40 19 2 36 5 38 5 1 1 2 -20 2 -46z"/>
<path d="M7040 3020 l0 -240 70 0 70 0 0 240 0 240 -70 0 -70 0 0 -240z"/>
<path d="M4280 2399 c-14 -6 -35 -20 -47 -31 l-23 -21 0 26 c0 27 -1 27 -65
27 l-65 0 2 -337 3 -338 70 0 70 0 3 93 3 92 52 0 c113 0 191 42 232 123 21
43 25 65 25 136 0 97 -18 149 -66 192 -50 45 -134 62 -194 38z m72 -120 c46
-24 63 -135 30 -199 -21 -42 -53 -60 -109 -60 l-43 0 0 125 c0 121 1 126 23
135 31 12 75 12 99 -1z"/>
<path d="M4825 2396 c-17 -7 -36 -20 -44 -29 -19 -24 -31 -21 -31 8 0 24 -3
25 -60 25 l-60 0 0 -240 0 -240 70 0 70 0 0 159 0 159 26 17 c14 9 50 19 80
22 l55 6 -3 61 -3 61 -35 2 c-19 2 -49 -3 -65 -11z"/>
<path d="M5110 2398 c-50 -14 -97 -53 -123 -101 -18 -35 -22 -58 -22 -137 0
-109 20 -160 77 -203 98 -72 259 -61 331 24 42 48 57 97 57 181 0 81 -21 143
-63 186 -52 54 -166 76 -257 50z m144 -121 c28 -28 40 -97 30 -164 -11 -75
-65 -111 -129 -87 -59 23 -62 244 -3 267 33 14 80 6 102 -16z"/>
<path d="M5668 2397 c-26 -8 -62 -25 -81 -40 -103 -79 -116 -298 -22 -391 57
-57 161 -65 226 -17 l29 22 0 -26 c0 -46 -26 -91 -59 -105 -32 -13 -175 -9
-214 6 -16 6 -18 1 -15 -52 l3 -58 40 -9 c22 -4 83 -7 135 -5 122 4 178 28
218 96 l27 47 3 258 3 257 -28 11 c-45 17 -211 21 -265 6z m150 -220 l3 -118
-37 -15 c-45 -19 -87 -11 -114 23 -16 20 -20 40 -20 92 1 104 35 143 120 138
l45 -2 3 -118z"/>
<path d="M6265 2396 c-17 -7 -36 -20 -44 -29 -19 -24 -31 -21 -31 8 0 24 -3
25 -60 25 l-60 0 0 -240 0 -240 70 0 70 0 0 159 0 159 26 17 c14 9 50 19 80
22 l55 6 -3 61 -3 61 -35 2 c-19 2 -49 -3 -65 -11z"/>
<path d="M6462 2399 l-43 -10 3 -52 c2 -38 7 -51 17 -49 41 9 142 14 164 8 34
-8 57 -32 57 -60 0 -22 -6 -24 -86 -34 -132 -17 -185 -59 -186 -144 -1 -58 26
-107 72 -131 48 -25 139 -19 180 11 36 27 40 27 40 2 0 -18 7 -20 61 -20 l60
0 -3 194 c-3 220 -7 233 -84 271 -46 22 -183 30 -252 14z m198 -317 c0 -43 -3
-50 -25 -60 -55 -25 -105 -7 -105 37 0 37 26 59 75 64 22 2 43 4 48 5 4 1 7
-20 7 -46z"/>
<path d="M7084 2385 c-27 -14 -50 -25 -51 -25 -2 0 -3 9 -3 20 0 18 -7 20 -65
20 l-65 0 0 -240 0 -240 75 0 75 0 0 163 c0 146 2 166 18 180 22 20 83 22 100
5 8 -8 12 -63 12 -180 l0 -168 75 0 75 0 0 168 c0 117 4 172 12 180 7 7 29 12
49 12 63 0 69 -19 69 -202 l0 -158 71 0 71 0 -4 193 c-3 221 -10 242 -86 279
-55 26 -128 20 -183 -16 -34 -23 -38 -24 -51 -9 -18 23 -71 43 -111 43 -18 0
-56 -11 -83 -25z"/>
<path d="M7795 2406 c-5 -3 -27 -7 -47 -11 l-38 -6 0 -56 c0 -45 3 -54 15 -49
27 10 143 19 168 12 34 -8 57 -33 57 -60 0 -22 -6 -24 -77 -33 -101 -13 -148
-34 -173 -75 -26 -43 -26 -113 -1 -154 39 -64 167 -83 232 -35 35 26 35 26 42
1 4 -17 14 -20 66 -20 l61 0 0 150 c0 279 -31 329 -210 336 -47 2 -89 2 -95 0z
m155 -324 c0 -43 -3 -50 -25 -60 -55 -25 -105 -5 -105 42 0 32 28 54 75 59 22
2 43 4 48 5 4 1 7 -20 7 -46z"/>
</g>
</svg>
